<svg xmlns="http://www.w3.org/2000/svg" xmlns:xlink="http://www.w3.org/1999/xlink" width="500" zoomAndPan="magnify" viewBox="0 0 375 374.999991" height="500" preserveAspectRatio="xMidYMid meet" version="1.0"><defs><g/><clipPath id="77fdf34e48"><path d="M 56.429688 191 L 88 191 L 88 209 L 56.429688 209 Z M 56.429688 191 " clip-rule="nonzero"/></clipPath><clipPath id="e16d2c215b"><path d="M 105 233 L 128 233 L 128 262.671875 L 105 262.671875 Z M 105 233 " clip-rule="nonzero"/></clipPath><clipPath id="e3f7ff015b"><path d="M 140 105.171875 L 153 105.171875 L 153 135 L 140 135 Z M 140 105.171875 " clip-rule="nonzero"/></clipPath></defs><g clip-path="url(#77fdf34e48)"><path fill="#ffffff" d="M 58.464844 196.78125 C 58.957031 201.203125 57.28125 205.6875 56.597656 207.289062 C 56.433594 207.679688 56.492188 208.125 56.753906 208.457031 C 57.148438 208.957031 57.875 209.046875 58.375 208.652344 L 73.332031 196.902344 C 73.292969 199.359375 74.949219 201.929688 77.707031 203.292969 C 81.292969 205.0625 85.375 204.113281 86.828125 201.171875 C 88.28125 198.230469 86.554688 194.410156 82.96875 192.640625 C 80.71875 191.527344 78.273438 191.488281 76.402344 192.339844 C 75.988281 192.53125 75.605469 192.761719 75.253906 193.035156 L 61.988281 203.453125 C 62.390625 202.144531 62.4375 200.027344 60.996094 196.800781 C 59.078125 192.496094 62.554688 191.75 62.554688 191.75 C 62.554688 191.75 57.847656 191.261719 58.464844 196.78125 " fill-opacity="1" fill-rule="nonzero"/></g><path fill="#ffffff" d="M 178.535156 116.542969 C 174.472656 114.71875 171.460938 111 170.425781 109.597656 C 170.175781 109.257812 169.761719 109.082031 169.34375 109.140625 C 168.710938 109.226562 168.265625 109.804688 168.351562 110.441406 L 170.878906 129.289062 C 168.785156 128.007812 165.726562 128.132812 163.15625 129.816406 C 159.8125 132.003906 158.554688 136.003906 160.351562 138.75 C 162.148438 141.496094 166.316406 141.945312 169.664062 139.757812 C 171.761719 138.382812 173.039062 136.292969 173.253906 134.25 C 173.300781 133.800781 173.296875 133.347656 173.238281 132.910156 L 170.996094 116.191406 C 171.917969 117.199219 173.722656 118.316406 177.230469 118.714844 C 181.914062 119.242188 180.792969 122.617188 180.792969 122.617188 C 180.792969 122.617188 183.601562 118.8125 178.535156 116.542969 " fill-opacity="1" fill-rule="nonzero"/><g clip-path="url(#e16d2c215b)"><path fill="#ffffff" d="M 107.753906 254.527344 C 111.289062 256.671875 113.636719 260.441406 114.429688 261.851562 C 114.621094 262.195312 114.984375 262.402344 115.375 262.398438 C 115.96875 262.394531 116.445312 261.90625 116.4375 261.316406 L 116.265625 243.660156 C 118.046875 245.082031 120.878906 245.316406 123.441406 244.0625 C 126.773438 242.425781 128.386719 238.886719 127.046875 236.152344 C 125.707031 233.417969 121.917969 232.523438 118.585938 234.160156 C 116.496094 235.183594 115.078125 236.960938 114.648438 238.820312 C 114.554688 239.230469 114.503906 239.644531 114.507812 240.058594 L 114.660156 255.714844 C 113.925781 254.679688 112.394531 253.445312 109.207031 252.675781 C 104.953125 251.652344 106.371094 248.671875 106.371094 248.671875 C 106.371094 248.671875 103.347656 251.855469 107.753906 254.527344 " fill-opacity="1" fill-rule="nonzero"/></g><path fill="#ffffff" d="M 87.40625 128.992188 C 87.078125 128.761719 87.003906 128.308594 87.234375 127.980469 C 87.464844 127.652344 87.917969 127.574219 88.246094 127.808594 L 103.527344 138.605469 C 103.808594 138.804688 104.070312 139.042969 104.304688 139.3125 C 105.359375 140.523438 105.878906 142.367188 105.546875 144.300781 C 105.019531 147.382812 102.542969 149.535156 100.011719 149.101562 C 97.484375 148.667969 95.859375 145.820312 96.386719 142.738281 C 96.789062 140.367188 98.347656 138.546875 100.195312 138.03125 L 87.40625 128.992188 " fill-opacity="1" fill-rule="nonzero"/><path fill="#ffffff" d="M 81.316406 235.953125 C 81.023438 236.289062 80.515625 236.320312 80.183594 236.03125 C 79.847656 235.738281 79.816406 235.230469 80.105469 234.898438 L 93.746094 219.328125 C 94 219.039062 94.289062 218.78125 94.609375 218.554688 C 96.066406 217.53125 98.152344 217.171875 100.246094 217.757812 C 103.574219 218.691406 105.65625 221.667969 104.890625 224.398438 C 104.121094 227.132812 100.800781 228.59375 97.46875 227.660156 C 94.910156 226.941406 93.085938 225.019531 92.730469 222.925781 L 81.316406 235.953125 " fill-opacity="1" fill-rule="nonzero"/><g clip-path="url(#e3f7ff015b)"><path fill="#ffffff" d="M 147.125 106.257812 C 147.054688 105.8125 147.359375 105.394531 147.804688 105.328125 C 148.246094 105.257812 148.664062 105.558594 148.738281 106.003906 L 152.007812 126.789062 C 152.070312 127.175781 152.082031 127.570312 152.050781 127.96875 C 151.902344 129.769531 150.820312 131.632812 149 132.882812 C 146.105469 134.875 142.429688 134.5625 140.792969 132.183594 C 139.160156 129.804688 140.183594 126.261719 143.078125 124.269531 C 145.308594 122.738281 147.996094 122.570312 149.863281 123.652344 L 147.125 106.257812 " fill-opacity="1" fill-rule="nonzero"/></g><path fill="#ffffff" d="M 144.492188 237.699219 C 144.382812 237.335938 144.320312 236.957031 144.300781 236.574219 C 144.207031 234.820312 145 232.890625 146.582031 231.449219 C 149.105469 229.15625 152.679688 228.972656 154.5625 231.042969 C 156.445312 233.113281 155.925781 236.652344 153.402344 238.949219 C 151.464844 240.710938 148.902344 241.226562 146.96875 240.429688 L 151.132812 254.296875 L 163.457031 244.027344 L 160.140625 232.996094 C 160.035156 232.636719 159.96875 232.257812 159.949219 231.871094 C 159.855469 230.121094 160.648438 228.1875 162.234375 226.75 C 164.757812 224.453125 168.328125 224.269531 170.210938 226.34375 C 172.09375 228.414062 171.578125 231.953125 169.050781 234.246094 C 167.113281 236.011719 164.550781 236.527344 162.617188 235.730469 L 166.527344 248.75 L 154.136719 259.257812 C 153.339844 259.929688 152.414062 260.4375 151.414062 260.734375 L 144.492188 237.699219 " fill-opacity="1" fill-rule="nonzero"/><path fill="#ffffff" d="M 132.753906 128.785156 C 132.789062 129.066406 132.792969 129.355469 132.765625 129.644531 C 132.632812 130.957031 131.816406 132.296875 130.476562 133.183594 C 128.335938 134.59375 125.664062 134.3125 124.507812 132.558594 C 123.347656 130.800781 124.144531 128.234375 126.285156 126.824219 C 127.929688 125.742188 129.890625 125.65625 131.234375 126.472656 L 129.75 115.699219 L 119.414062 121.886719 L 120.589844 130.460938 C 120.628906 130.742188 120.632812 131.027344 120.605469 131.320312 C 120.472656 132.628906 119.65625 133.96875 118.316406 134.855469 C 116.175781 136.265625 113.503906 135.984375 112.347656 134.230469 C 111.1875 132.472656 111.984375 129.90625 114.125 128.496094 C 115.769531 127.414062 117.726562 127.328125 119.074219 128.144531 L 117.679688 118.027344 L 128.097656 111.667969 C 128.765625 111.257812 129.511719 110.992188 130.289062 110.886719 L 132.753906 128.785156 " fill-opacity="1" fill-rule="nonzero"/><path fill="#ffffff" d="M 80.289062 212.253906 L 80.183594 212.050781 L 80.078125 211.839844 L 79.871094 211.421875 C 79.734375 211.144531 79.59375 210.867188 79.457031 210.585938 C 79.328125 210.304688 79.195312 210.023438 79.0625 209.742188 L 78.863281 209.316406 L 78.675781 208.890625 C 78.550781 208.601562 78.425781 208.316406 78.300781 208.03125 C 78.238281 207.890625 78.179688 207.746094 78.121094 207.601562 L 77.945312 207.167969 L 77.765625 206.734375 C 77.707031 206.585938 77.648438 206.445312 77.59375 206.296875 C 77.515625 206.089844 77.4375 205.886719 77.359375 205.683594 C 77.128906 205.589844 76.902344 205.488281 76.675781 205.378906 C 76.304688 205.195312 75.949219 204.992188 75.609375 204.773438 C 75.742188 205.148438 75.875 205.515625 76.015625 205.886719 C 76.128906 206.183594 76.242188 206.484375 76.355469 206.78125 C 76.410156 206.929688 76.472656 207.078125 76.53125 207.226562 L 76.714844 207.667969 L 76.894531 208.113281 C 76.953125 208.257812 77.011719 208.40625 77.078125 208.554688 C 77.207031 208.84375 77.332031 209.136719 77.460938 209.429688 L 77.652344 209.867188 L 77.855469 210.296875 C 77.992188 210.585938 78.125 210.875 78.257812 211.160156 C 78.394531 211.449219 78.539062 211.730469 78.679688 212.015625 L 78.894531 212.441406 L 79 212.65625 L 79.109375 212.867188 C 80.277344 215.117188 81.570312 217.296875 82.972656 219.378906 C 84.078125 221.007812 85.25 222.578125 86.484375 224.089844 L 87.371094 223.074219 C 86.214844 221.648438 85.113281 220.167969 84.074219 218.636719 C 82.699219 216.59375 81.433594 214.460938 80.289062 212.253906 Z M 104.300781 127.253906 C 102.246094 128.441406 100.238281 129.753906 98.289062 131.183594 L 97.925781 131.453125 C 97.84375 131.511719 97.765625 131.570312 97.6875 131.632812 L 98.828125 132.4375 L 99.078125 132.253906 C 100.984375 130.855469 102.953125 129.570312 104.964844 128.40625 C 106.976562 127.246094 109.039062 126.210938 111.125 125.292969 C 112.757812 124.574219 114.410156 123.933594 116.066406 123.367188 L 115.882812 122.027344 C 114.105469 122.625 112.339844 123.308594 110.589844 124.078125 C 108.460938 125.011719 106.355469 126.070312 104.300781 127.253906 Z M 166.007812 125.753906 C 165.285156 125.390625 164.550781 125.019531 163.792969 124.671875 C 162.28125 123.96875 160.699219 123.292969 159.046875 122.683594 C 157.390625 122.074219 155.671875 121.511719 153.890625 121.011719 C 153.738281 120.972656 153.585938 120.929688 153.433594 120.890625 L 153.660156 122.332031 C 155.359375 122.808594 157.003906 123.347656 158.582031 123.929688 C 160.203125 124.527344 161.75 125.1875 163.230469 125.878906 C 163.714844 126.097656 164.191406 126.332031 164.660156 126.5625 C 165.347656 126.351562 166.050781 126.210938 166.753906 126.144531 C 166.507812 126.015625 166.257812 125.886719 166.007812 125.753906 Z M 170.464844 142.375 C 170.546875 142.441406 170.625 142.507812 170.699219 142.574219 C 170.851562 142.699219 170.992188 142.820312 171.125 142.929688 C 171.191406 142.984375 171.253906 143.039062 171.3125 143.089844 C 171.371094 143.140625 171.425781 143.191406 171.484375 143.238281 C 171.589844 143.335938 171.6875 143.421875 171.773438 143.5 C 171.949219 143.652344 172.078125 143.769531 172.167969 143.847656 C 172.257812 143.925781 172.300781 143.96875 172.300781 143.96875 L 173.195312 142.984375 C 173.195312 142.984375 173.152344 142.941406 173.0625 142.863281 C 172.96875 142.78125 172.835938 142.664062 172.65625 142.503906 C 172.566406 142.425781 172.46875 142.335938 172.355469 142.238281 C 172.300781 142.191406 172.242188 142.140625 172.183594 142.085938 C 172.121094 142.03125 172.058594 141.976562 171.992188 141.921875 C 171.855469 141.808594 171.710938 141.6875 171.558594 141.554688 C 171.496094 141.503906 171.433594 141.453125 171.375 141.402344 C 171.230469 141.503906 171.085938 141.605469 170.9375 141.703125 C 170.691406 141.859375 170.445312 142.011719 170.195312 142.148438 C 170.199219 142.152344 170.207031 142.160156 170.214844 142.164062 C 170.300781 142.234375 170.386719 142.304688 170.464844 142.375 Z M 72.445312 191.433594 C 72.46875 191.59375 72.492188 191.753906 72.511719 191.914062 L 72.554688 192.199219 L 73.761719 191.25 L 73.710938 190.796875 C 73.414062 188.292969 73.265625 185.773438 73.261719 183.25 C 73.265625 180.730469 73.414062 178.207031 73.710938 175.703125 L 73.765625 175.234375 C 73.785156 175.074219 73.808594 174.921875 73.832031 174.761719 L 73.960938 173.828125 L 73.996094 173.59375 L 74.03125 173.363281 L 74.109375 172.894531 C 74.148438 172.675781 74.183594 172.453125 74.222656 172.234375 L 72.90625 172.023438 C 72.871094 172.242188 72.835938 172.460938 72.796875 172.679688 L 72.679688 173.394531 L 72.644531 173.632812 L 72.511719 174.585938 C 72.492188 174.746094 72.46875 174.90625 72.445312 175.066406 L 72.390625 175.542969 C 72.089844 178.101562 71.9375 180.675781 71.933594 183.25 C 71.9375 185.824219 72.089844 188.398438 72.390625 190.953125 Z M 69.570312 171.492188 C 68.894531 175.371094 68.550781 179.3125 68.550781 183.25 C 68.550781 187.046875 68.871094 190.851562 69.5 194.597656 L 70.695312 193.660156 C 70.15625 190.21875 69.882812 186.734375 69.878906 183.25 C 69.882812 179.382812 70.21875 175.507812 70.882812 171.703125 Z M 112.113281 127.101562 C 111.980469 127.15625 111.851562 127.214844 111.71875 127.273438 C 107.847656 128.992188 104.105469 131.140625 100.597656 133.6875 L 101.746094 134.5 C 104.453125 132.566406 107.296875 130.871094 110.234375 129.433594 C 110.683594 128.554688 111.324219 127.757812 112.113281 127.101562 Z M 136.375 118.652344 C 135.492188 118.652344 134.605469 118.671875 133.714844 118.710938 L 133.894531 120.035156 C 134.726562 120 135.554688 119.980469 136.375 119.980469 C 139.71875 119.972656 142.964844 120.230469 146.078125 120.699219 C 146.394531 120.660156 146.714844 120.636719 147.03125 120.632812 L 146.847656 119.472656 C 143.5 118.9375 139.988281 118.644531 136.375 118.652344 Z M 76.660156 181.871094 C 76.660156 181.78125 76.664062 181.6875 76.667969 181.597656 L 76.6875 181.046875 L 76.707031 180.492188 L 76.71875 180.21875 C 76.722656 180.125 76.730469 180.035156 76.734375 179.941406 L 76.753906 179.664062 C 76.453125 179.101562 76.203125 178.496094 76.015625 177.851562 C 75.871094 177.363281 75.765625 176.871094 75.699219 176.382812 C 75.695312 176.421875 75.691406 176.464844 75.6875 176.503906 C 75.664062 176.691406 75.640625 176.875 75.625 177.0625 L 75.574219 177.625 L 75.523438 178.183594 C 75.507812 178.371094 75.488281 178.558594 75.480469 178.746094 L 75.40625 179.871094 C 75.402344 179.964844 75.394531 180.058594 75.390625 180.152344 L 75.378906 180.433594 L 75.339844 181.558594 C 75.332031 181.652344 75.332031 181.746094 75.332031 181.839844 L 75.328125 182.125 L 75.3125 183.25 L 75.332031 184.65625 C 75.332031 184.75 75.332031 184.84375 75.339844 184.9375 L 75.359375 185.503906 L 75.378906 186.066406 L 75.390625 186.347656 C 75.394531 186.441406 75.402344 186.535156 75.40625 186.628906 L 75.480469 187.753906 C 75.488281 187.941406 75.507812 188.128906 75.523438 188.3125 L 75.625 189.4375 C 75.640625 189.625 75.664062 189.808594 75.6875 189.996094 C 75.691406 190.035156 75.695312 190.074219 75.699219 190.117188 C 76.113281 189.941406 76.542969 189.800781 76.988281 189.691406 C 76.972656 189.5625 76.957031 189.433594 76.945312 189.304688 L 76.898438 188.753906 L 76.847656 188.207031 C 76.832031 188.023438 76.816406 187.839844 76.804688 187.65625 L 76.734375 186.554688 C 76.730469 186.464844 76.722656 186.375 76.71875 186.28125 L 76.707031 186.003906 L 76.667969 184.902344 C 76.664062 184.8125 76.660156 184.71875 76.660156 184.628906 L 76.65625 184.351562 L 76.644531 183.25 L 76.65625 182.148438 Z M 95.664062 137.675781 C 91.84375 141.101562 88.414062 145.042969 85.523438 149.394531 C 85.171875 149.925781 84.824219 150.464844 84.488281 151.007812 L 85.914062 151.234375 C 86.152344 150.863281 86.386719 150.496094 86.632812 150.128906 C 88.960938 146.625 91.652344 143.390625 94.617188 140.480469 C 94.988281 139.554688 95.5 138.714844 96.128906 138.003906 Z M 172.300781 222.53125 C 172.300781 222.53125 172.257812 222.574219 172.167969 222.652344 C 172.078125 222.730469 171.949219 222.847656 171.773438 223 C 171.6875 223.078125 171.589844 223.164062 171.484375 223.257812 C 171.425781 223.308594 171.371094 223.359375 171.3125 223.410156 C 171.253906 223.460938 171.191406 223.515625 171.125 223.570312 C 171.03125 223.644531 170.933594 223.730469 170.832031 223.816406 C 171.199219 224.070312 171.542969 224.363281 171.851562 224.695312 C 171.898438 224.65625 171.945312 224.613281 171.992188 224.578125 C 172.058594 224.519531 172.121094 224.464844 172.183594 224.414062 C 172.242188 224.359375 172.300781 224.308594 172.355469 224.261719 C 172.46875 224.160156 172.566406 224.074219 172.65625 223.996094 C 172.835938 223.835938 172.96875 223.71875 173.0625 223.636719 C 173.152344 223.558594 173.195312 223.515625 173.195312 223.515625 Z M 88.742188 221.507812 L 89.632812 220.492188 C 88.578125 219.164062 87.574219 217.789062 86.632812 216.371094 C 84.570312 213.273438 82.792969 209.964844 81.335938 206.511719 C 81.226562 206.507812 81.121094 206.507812 81.011719 206.5 C 80.625 206.484375 80.230469 206.445312 79.839844 206.382812 C 81.378906 210.152344 83.289062 213.75 85.523438 217.105469 C 86.535156 218.625 87.609375 220.09375 88.742188 221.507812 Z M 127.621094 243.820312 C 127.953125 243.867188 128.289062 243.914062 128.625 243.960938 C 128.707031 243.972656 128.792969 243.984375 128.878906 243.992188 L 129.128906 244.023438 C 129.296875 244.042969 129.460938 244.0625 129.628906 244.082031 C 130.300781 244.164062 130.972656 244.214844 131.636719 244.273438 C 131.804688 244.289062 131.972656 244.300781 132.140625 244.308594 C 132.304688 244.320312 132.472656 244.332031 132.640625 244.34375 C 132.808594 244.351562 132.972656 244.363281 133.140625 244.375 L 133.390625 244.390625 L 133.640625 244.398438 C 134.304688 244.421875 134.96875 244.457031 135.632812 244.457031 C 135.964844 244.460938 136.292969 244.46875 136.625 244.46875 C 136.953125 244.464844 137.285156 244.460938 137.613281 244.457031 C 137.777344 244.453125 137.941406 244.453125 138.105469 244.449219 C 138.269531 244.441406 138.433594 244.4375 138.597656 244.429688 C 138.925781 244.417969 139.253906 244.40625 139.582031 244.394531 C 139.90625 244.378906 140.234375 244.351562 140.558594 244.332031 C 140.882812 244.3125 141.210938 244.296875 141.535156 244.265625 C 142.179688 244.207031 142.824219 244.15625 143.46875 244.078125 C 143.632812 244.054688 143.796875 244.039062 143.964844 244.019531 L 143.574219 242.726562 C 143.488281 242.734375 143.402344 242.746094 143.316406 242.753906 C 142.691406 242.832031 142.058594 242.882812 141.425781 242.941406 C 141.109375 242.972656 140.792969 242.984375 140.472656 243.007812 C 140.152344 243.027344 139.835938 243.050781 139.515625 243.066406 C 139.195312 243.078125 138.875 243.089844 138.554688 243.101562 C 138.394531 243.109375 138.234375 243.113281 138.074219 243.121094 C 137.914062 243.121094 137.75 243.125 137.589844 243.125 C 137.269531 243.128906 136.945312 243.132812 136.621094 243.136719 C 136.300781 243.136719 135.976562 243.128906 135.652344 243.128906 C 135.003906 243.128906 134.355469 243.09375 133.703125 243.070312 L 133.457031 243.0625 L 133.214844 243.046875 C 133.050781 243.035156 132.886719 243.027344 132.722656 243.015625 C 132.558594 243.003906 132.398438 242.996094 132.234375 242.984375 C 132.070312 242.972656 131.90625 242.964844 131.742188 242.949219 C 131.089844 242.886719 130.433594 242.839844 129.78125 242.757812 C 129.613281 242.738281 129.449219 242.71875 129.289062 242.703125 L 129.042969 242.671875 C 128.957031 242.664062 128.878906 242.65625 128.796875 242.644531 C 128.699219 242.628906 128.601562 242.617188 128.503906 242.601562 C 128.230469 243.027344 127.917969 243.433594 127.574219 243.816406 C 127.589844 243.816406 127.605469 243.820312 127.621094 243.820312 Z M 90.835938 137.589844 L 90.671875 137.753906 C 90.457031 137.976562 90.242188 138.195312 90.027344 138.417969 C 89.917969 138.527344 89.808594 138.636719 89.703125 138.75 L 89.390625 139.089844 C 89.179688 139.316406 88.96875 139.542969 88.757812 139.769531 C 88.546875 139.996094 88.34375 140.230469 88.136719 140.464844 L 87.828125 140.8125 L 87.675781 140.984375 L 87.523438 141.164062 C 85.90625 143.050781 84.382812 145.039062 82.972656 147.121094 C 82.246094 148.199219 81.550781 149.308594 80.882812 150.433594 L 82.296875 150.660156 C 82.867188 149.710938 83.460938 148.777344 84.074219 147.863281 C 85.457031 145.828125 86.949219 143.878906 88.53125 142.03125 L 88.679688 141.855469 L 88.832031 141.6875 L 89.132812 141.34375 C 89.335938 141.117188 89.535156 140.886719 89.738281 140.664062 C 89.945312 140.441406 90.152344 140.21875 90.359375 139.996094 L 90.667969 139.664062 C 90.769531 139.554688 90.878906 139.449219 90.984375 139.339844 C 91.195312 139.125 91.40625 138.90625 91.617188 138.691406 L 91.773438 138.53125 C 91.828125 138.476562 91.882812 138.425781 91.9375 138.371094 L 92.261719 138.054688 C 92.476562 137.84375 92.691406 137.632812 92.90625 137.425781 C 93.128906 137.21875 93.347656 137.015625 93.566406 136.808594 C 93.691406 136.691406 93.816406 136.574219 93.945312 136.460938 L 92.835938 135.675781 C 92.777344 135.730469 92.71875 135.78125 92.664062 135.832031 C 92.441406 136.042969 92.214844 136.253906 91.992188 136.460938 C 91.769531 136.675781 91.550781 136.890625 91.328125 137.105469 L 91 137.425781 C 90.945312 137.480469 90.886719 137.535156 90.835938 137.589844 Z M 103.207031 240.980469 C 99.445312 238.808594 95.824219 236.214844 92.445312 233.234375 C 91.386719 232.300781 90.351562 231.328125 89.34375 230.316406 L 88.46875 231.320312 C 89.472656 232.324219 90.507812 233.296875 91.5625 234.230469 C 95.011719 237.273438 98.707031 239.914062 102.539062 242.132812 C 105.703125 243.964844 108.964844 245.503906 112.25 246.761719 L 112.234375 245.328125 C 109.179688 244.132812 106.152344 242.6875 103.207031 240.980469 Z M 75.960938 211.089844 C 74.96875 208.9375 74.085938 206.726562 73.328125 204.460938 C 73.027344 203.550781 72.742188 202.636719 72.476562 201.710938 C 72.304688 201.449219 72.144531 201.183594 72 200.910156 L 71.074219 201.636719 C 71.378906 202.730469 71.710938 203.8125 72.070312 204.882812 C 72.839844 207.195312 73.742188 209.449219 74.753906 211.644531 C 76.773438 216.035156 79.25 220.167969 82.082031 223.957031 C 82.777344 224.882812 83.488281 225.785156 84.222656 226.667969 L 85.113281 225.65625 C 84.441406 224.839844 83.785156 224.011719 83.148438 223.160156 C 80.367188 219.445312 77.941406 215.390625 75.960938 211.089844 Z M 137.660156 249.890625 C 137.4375 249.890625 137.210938 249.894531 136.984375 249.898438 C 136.757812 249.898438 136.53125 249.90625 136.304688 249.898438 C 135.847656 249.894531 135.390625 249.886719 134.929688 249.882812 C 134.011719 249.851562 133.085938 249.824219 132.148438 249.753906 C 130.277344 249.632812 128.375 249.433594 126.449219 249.144531 C 123.871094 248.75 121.253906 248.191406 118.628906 247.464844 L 118.644531 248.847656 C 121.195312 249.539062 123.742188 250.074219 126.253906 250.457031 C 128.214844 250.753906 130.15625 250.957031 132.0625 251.082031 C 133.015625 251.152344 133.964844 251.179688 134.898438 251.210938 C 135.367188 251.21875 135.835938 251.222656 136.296875 251.230469 C 136.53125 251.234375 136.761719 251.230469 136.992188 251.226562 C 137.222656 251.222656 137.453125 251.222656 137.683594 251.21875 C 140.535156 251.171875 143.296875 250.945312 145.933594 250.578125 L 145.546875 249.292969 C 143.023438 249.632812 140.382812 249.84375 137.660156 249.890625 Z M 181.246094 232.679688 C 181.136719 232.777344 180.96875 232.925781 180.75 233.117188 C 180.640625 233.214844 180.519531 233.324219 180.386719 233.441406 C 180.316406 233.503906 180.246094 233.566406 180.171875 233.628906 C 180.097656 233.695312 180.019531 233.761719 179.9375 233.832031 C 179.773438 233.96875 179.59375 234.121094 179.40625 234.28125 C 179.3125 234.359375 179.214844 234.441406 179.113281 234.527344 C 179.011719 234.613281 178.90625 234.703125 178.796875 234.789062 C 178.578125 234.964844 178.34375 235.152344 178.101562 235.351562 C 177.976562 235.449219 177.851562 235.550781 177.722656 235.65625 C 177.59375 235.757812 177.457031 235.859375 177.320312 235.964844 C 177.046875 236.175781 176.757812 236.394531 176.457031 236.625 C 176.15625 236.851562 175.835938 237.082031 175.503906 237.320312 C 174.179688 238.277344 172.625 239.332031 170.820312 240.414062 C 169.671875 241.105469 168.425781 241.804688 167.078125 242.5 L 167.46875 243.792969 C 168.925781 243.046875 170.273438 242.296875 171.503906 241.554688 C 173.34375 240.449219 174.933594 239.375 176.285156 238.398438 C 176.621094 238.152344 176.945312 237.917969 177.253906 237.6875 C 177.5625 237.453125 177.855469 237.230469 178.136719 237.015625 C 178.273438 236.90625 178.414062 236.804688 178.546875 236.699219 C 178.675781 236.59375 178.804688 236.492188 178.929688 236.390625 C 179.179688 236.1875 179.414062 236 179.640625 235.816406 C 179.75 235.726562 179.859375 235.640625 179.960938 235.550781 C 180.066406 235.464844 180.164062 235.378906 180.261719 235.296875 C 180.457031 235.132812 180.636719 234.980469 180.804688 234.839844 C 180.886719 234.769531 180.964844 234.699219 181.042969 234.636719 C 181.117188 234.566406 181.191406 234.503906 181.261719 234.445312 C 181.398438 234.320312 181.523438 234.210938 181.632812 234.113281 C 181.855469 233.914062 182.023438 233.765625 182.136719 233.664062 C 182.25 233.566406 182.304688 233.511719 182.304688 233.511719 L 181.410156 232.53125 C 181.410156 232.53125 181.355469 232.582031 181.246094 232.679688 Z M 83.148438 143.335938 C 85.5625 140.113281 88.246094 137.144531 91.121094 134.464844 L 90.015625 133.683594 C 87.15625 136.367188 84.492188 139.328125 82.082031 142.539062 C 80.347656 144.859375 78.75 147.308594 77.308594 149.863281 L 78.710938 150.085938 C 80.058594 147.738281 81.542969 145.480469 83.148438 143.335938 Z M 193.050781 203.101562 C 192.988281 203.269531 192.929688 203.4375 192.871094 203.609375 C 192.839844 203.691406 192.808594 203.777344 192.78125 203.863281 C 192.75 203.949219 192.714844 204.03125 192.683594 204.117188 C 192.554688 204.457031 192.425781 204.800781 192.292969 205.148438 C 192.15625 205.492188 192.011719 205.839844 191.867188 206.191406 C 191.726562 206.546875 191.570312 206.894531 191.414062 207.25 C 191.335938 207.425781 191.257812 207.605469 191.179688 207.785156 C 191.144531 207.875 191.101562 207.964844 191.058594 208.054688 C 191.015625 208.140625 190.976562 208.230469 190.933594 208.320312 C 190.851562 208.5 190.765625 208.679688 190.683594 208.859375 C 190.597656 209.042969 190.515625 209.222656 190.421875 209.40625 C 190.242188 209.765625 190.0625 210.128906 189.878906 210.496094 C 189.6875 210.863281 189.492188 211.226562 189.300781 211.597656 C 188.503906 213.070312 187.617188 214.566406 186.636719 216.0625 C 184.671875 219.058594 182.308594 222.074219 179.507812 224.957031 C 178.105469 226.398438 176.597656 227.808594 174.980469 229.164062 C 174.535156 229.539062 174.082031 229.90625 173.617188 230.273438 C 173.609375 230.367188 173.597656 230.457031 173.585938 230.546875 C 173.496094 231.15625 173.335938 231.757812 173.117188 232.335938 C 174.054688 231.636719 174.960938 230.917969 175.835938 230.183594 C 177.488281 228.796875 179.03125 227.359375 180.460938 225.882812 C 183.324219 222.933594 185.738281 219.855469 187.746094 216.792969 C 188.753906 215.261719 189.65625 213.734375 190.46875 212.230469 C 190.667969 211.851562 190.867188 211.476562 191.0625 211.105469 C 191.25 210.726562 191.433594 210.355469 191.617188 209.984375 C 191.710938 209.800781 191.796875 209.617188 191.882812 209.429688 C 191.96875 209.246094 192.054688 209.0625 192.140625 208.878906 C 192.183594 208.785156 192.226562 208.695312 192.269531 208.605469 C 192.3125 208.511719 192.351562 208.421875 192.394531 208.328125 C 192.472656 208.148438 192.554688 207.964844 192.632812 207.78125 C 192.789062 207.421875 192.953125 207.0625 193.09375 206.699219 C 193.242188 206.339844 193.390625 205.988281 193.53125 205.632812 C 193.664062 205.277344 193.796875 204.925781 193.929688 204.578125 C 193.964844 204.492188 193.996094 204.40625 194.027344 204.320312 C 194.058594 204.234375 194.089844 204.144531 194.121094 204.058594 C 194.183594 203.886719 194.242188 203.714844 194.304688 203.542969 C 194.515625 202.960938 194.699219 202.378906 194.882812 201.8125 L 193.484375 201.8125 C 193.347656 202.238281 193.207031 202.667969 193.050781 203.101562 Z M 91 229.070312 L 91.328125 229.394531 C 91.550781 229.609375 91.769531 229.824219 91.992188 230.039062 C 92.214844 230.246094 92.441406 230.457031 92.664062 230.664062 C 93.109375 231.089844 93.570312 231.488281 94.027344 231.894531 C 94.253906 232.097656 94.488281 232.292969 94.722656 232.492188 C 94.953125 232.6875 95.1875 232.886719 95.421875 233.082031 C 95.65625 233.273438 95.894531 233.464844 96.128906 233.65625 L 96.484375 233.941406 L 96.84375 234.222656 C 97.082031 234.40625 97.324219 234.589844 97.5625 234.773438 C 97.683594 234.863281 97.804688 234.957031 97.925781 235.046875 L 98.289062 235.316406 C 100.238281 236.746094 102.246094 238.054688 104.300781 239.246094 C 106.355469 240.429688 108.460938 241.488281 110.589844 242.425781 C 111.128906 242.660156 111.671875 242.890625 112.214844 243.109375 L 112.199219 241.664062 C 111.839844 241.515625 111.480469 241.363281 111.125 241.207031 C 109.039062 240.289062 106.976562 239.253906 104.964844 238.09375 C 102.953125 236.929688 100.984375 235.644531 99.078125 234.242188 L 98.71875 233.980469 C 98.601562 233.894531 98.484375 233.804688 98.367188 233.714844 C 98.132812 233.535156 97.894531 233.351562 97.660156 233.171875 L 97.484375 233.035156 L 97.308594 232.894531 L 96.960938 232.617188 C 96.730469 232.429688 96.5 232.242188 96.265625 232.054688 C 96.039062 231.863281 95.8125 231.671875 95.582031 231.476562 C 95.355469 231.285156 95.125 231.09375 94.902344 230.894531 C 94.457031 230.496094 94.003906 230.105469 93.566406 229.691406 C 93.347656 229.484375 93.128906 229.28125 92.90625 229.074219 C 92.691406 228.867188 92.476562 228.65625 92.261719 228.445312 L 91.9375 228.128906 C 91.882812 228.078125 91.828125 228.023438 91.773438 227.96875 L 91.617188 227.808594 C 91.605469 227.796875 91.589844 227.78125 91.578125 227.769531 L 90.699219 228.773438 L 90.835938 228.910156 C 90.886719 228.964844 90.945312 229.019531 91 229.070312 Z M 189.019531 218.59375 C 188.933594 218.722656 188.800781 218.910156 188.625 219.164062 C 188.539062 219.289062 188.441406 219.429688 188.332031 219.585938 C 188.28125 219.664062 188.222656 219.742188 188.164062 219.828125 C 188.105469 219.914062 188.039062 220 187.972656 220.09375 C 187.839844 220.273438 187.695312 220.472656 187.542969 220.683594 C 187.390625 220.894531 187.226562 221.121094 187.046875 221.351562 C 186.867188 221.585938 186.675781 221.835938 186.476562 222.097656 C 186.425781 222.164062 186.375 222.226562 186.320312 222.296875 C 186.269531 222.363281 186.214844 222.429688 186.160156 222.496094 C 186.050781 222.632812 185.941406 222.769531 185.828125 222.910156 C 185.375 223.480469 184.859375 224.082031 184.304688 224.738281 C 183.179688 226.03125 181.832031 227.472656 180.238281 229 C 178.640625 230.527344 176.789062 232.128906 174.667969 233.738281 C 174.40625 233.941406 174.132812 234.136719 173.859375 234.335938 C 173.722656 234.4375 173.585938 234.539062 173.445312 234.636719 C 173.308594 234.738281 173.171875 234.84375 173.027344 234.941406 C 172.742188 235.136719 172.453125 235.335938 172.164062 235.539062 C 172.09375 235.585938 172.019531 235.636719 171.945312 235.6875 C 171.875 235.738281 171.800781 235.785156 171.726562 235.835938 C 171.578125 235.933594 171.425781 236.03125 171.277344 236.132812 C 171.125 236.230469 170.976562 236.328125 170.824219 236.429688 C 170.75 236.476562 170.675781 236.527344 170.597656 236.578125 C 170.519531 236.625 170.441406 236.671875 170.363281 236.722656 C 170.054688 236.914062 169.742188 237.109375 169.425781 237.308594 C 169.109375 237.5 168.785156 237.6875 168.457031 237.882812 C 168.296875 237.976562 168.132812 238.078125 167.96875 238.171875 C 167.800781 238.265625 167.632812 238.355469 167.464844 238.449219 C 167.296875 238.546875 167.128906 238.640625 166.960938 238.734375 C 166.875 238.78125 166.789062 238.828125 166.707031 238.875 C 166.621094 238.921875 166.535156 238.96875 166.445312 239.011719 C 166.328125 239.078125 166.207031 239.140625 166.089844 239.203125 L 166.476562 240.5 C 166.675781 240.394531 166.878906 240.289062 167.078125 240.183594 C 167.164062 240.136719 167.253906 240.089844 167.339844 240.042969 C 167.429688 239.996094 167.515625 239.945312 167.601562 239.898438 C 167.773438 239.800781 167.945312 239.707031 168.117188 239.609375 C 168.289062 239.515625 168.457031 239.417969 168.628906 239.324219 C 168.796875 239.226562 168.960938 239.128906 169.128906 239.03125 C 169.460938 238.832031 169.792969 238.640625 170.117188 238.441406 C 170.441406 238.242188 170.761719 238.042969 171.078125 237.84375 C 171.15625 237.796875 171.234375 237.746094 171.3125 237.695312 C 171.390625 237.648438 171.46875 237.59375 171.546875 237.542969 C 171.699219 237.441406 171.855469 237.34375 172.007812 237.242188 C 172.160156 237.140625 172.3125 237.039062 172.464844 236.941406 C 172.542969 236.890625 172.617188 236.839844 172.691406 236.789062 C 172.765625 236.738281 172.839844 236.6875 172.914062 236.636719 C 173.210938 236.429688 173.503906 236.226562 173.792969 236.027344 C 173.941406 235.925781 174.082031 235.820312 174.222656 235.71875 C 174.363281 235.613281 174.503906 235.511719 174.644531 235.410156 C 174.925781 235.207031 175.203125 235.003906 175.472656 234.796875 C 177.636719 233.152344 179.527344 231.519531 181.15625 229.960938 C 182.78125 228.402344 184.160156 226.929688 185.304688 225.609375 C 185.875 224.941406 186.402344 224.328125 186.863281 223.746094 C 186.980469 223.601562 187.09375 223.460938 187.203125 223.320312 C 187.257812 223.253906 187.3125 223.183594 187.367188 223.117188 C 187.421875 223.046875 187.472656 222.980469 187.523438 222.914062 C 187.726562 222.644531 187.921875 222.394531 188.105469 222.152344 C 188.292969 221.914062 188.457031 221.683594 188.613281 221.46875 C 188.773438 221.253906 188.917969 221.054688 189.054688 220.867188 C 189.121094 220.773438 189.1875 220.6875 189.25 220.597656 C 189.308594 220.511719 189.367188 220.425781 189.421875 220.347656 C 189.53125 220.191406 189.628906 220.046875 189.71875 219.917969 C 189.898438 219.660156 190.03125 219.46875 190.121094 219.335938 C 190.210938 219.203125 190.253906 219.136719 190.253906 219.136719 L 189.148438 218.394531 C 189.148438 218.394531 189.105469 218.460938 189.019531 218.59375 Z M 179.199219 146.199219 C 179.695312 146.785156 180.15625 147.320312 180.5625 147.832031 C 180.660156 147.957031 180.761719 148.082031 180.859375 148.203125 C 180.910156 148.261719 180.957031 148.320312 181.003906 148.378906 C 181.046875 148.441406 181.09375 148.5 181.136719 148.558594 C 181.320312 148.792969 181.488281 149.015625 181.648438 149.226562 C 181.8125 149.433594 181.957031 149.636719 182.09375 149.824219 C 182.230469 150.011719 182.359375 150.1875 182.476562 150.347656 C 182.535156 150.433594 182.59375 150.507812 182.648438 150.585938 C 182.703125 150.660156 182.75 150.734375 182.800781 150.804688 C 182.894531 150.941406 182.984375 151.066406 183.0625 151.179688 C 183.21875 151.40625 183.335938 151.574219 183.414062 151.691406 C 183.488281 151.804688 183.527344 151.867188 183.527344 151.867188 L 184.632812 151.125 C 184.632812 151.125 184.59375 151.066406 184.515625 150.945312 C 184.433594 150.828125 184.3125 150.65625 184.15625 150.425781 C 184.074219 150.308594 183.984375 150.183594 183.886719 150.039062 C 183.839844 149.96875 183.785156 149.894531 183.734375 149.816406 C 183.679688 149.738281 183.621094 149.660156 183.558594 149.574219 C 183.4375 149.410156 183.304688 149.230469 183.164062 149.035156 C 183.023438 148.84375 182.875 148.636719 182.710938 148.421875 C 182.546875 148.207031 182.371094 147.980469 182.1875 147.742188 C 182.140625 147.683594 182.097656 147.621094 182.046875 147.558594 C 182 147.5 181.949219 147.4375 181.902344 147.375 C 181.800781 147.253906 181.699219 147.128906 181.59375 146.996094 C 181.183594 146.476562 180.710938 145.925781 180.203125 145.328125 C 179.175781 144.144531 177.941406 142.824219 176.484375 141.429688 C 175.65625 140.640625 174.753906 139.828125 173.777344 139.007812 C 173.519531 139.363281 173.238281 139.703125 172.929688 140.03125 C 173.882812 140.832031 174.761719 141.621094 175.5625 142.390625 C 176.988281 143.753906 178.195312 145.042969 179.199219 146.199219 Z M 125.507812 245.5625 C 125.175781 245.773438 124.828125 245.972656 124.464844 246.148438 C 124.167969 246.296875 123.863281 246.429688 123.550781 246.546875 C 123.554688 246.546875 123.558594 246.546875 123.558594 246.546875 C 127.902344 247.429688 132.210938 247.84375 136.375 247.847656 C 139.3125 247.855469 142.179688 247.660156 144.949219 247.300781 L 144.5625 246.011719 C 141.917969 246.347656 139.179688 246.523438 136.375 246.519531 C 132.835938 246.515625 129.191406 246.207031 125.507812 245.5625 Z M 103.207031 125.519531 C 106.964844 123.34375 110.855469 121.585938 114.765625 120.238281 C 115.042969 120.140625 115.320312 120.050781 115.597656 119.957031 L 115.414062 118.621094 C 115.054688 118.738281 114.691406 118.855469 114.332031 118.980469 C 110.339844 120.359375 106.371094 122.148438 102.539062 124.367188 C 99.878906 125.90625 97.285156 127.648438 94.796875 129.589844 L 95.933594 130.390625 C 98.277344 128.589844 100.710938 126.960938 103.207031 125.519531 Z M 134.929688 116.617188 C 135.390625 116.609375 135.847656 116.605469 136.304688 116.601562 C 136.53125 116.59375 136.757812 116.601562 136.984375 116.601562 C 137.210938 116.605469 137.4375 116.609375 137.660156 116.609375 C 140.734375 116.660156 143.699219 116.921875 146.515625 117.347656 L 146.296875 115.972656 C 143.546875 115.574219 140.667969 115.328125 137.683594 115.28125 C 137.453125 115.28125 137.222656 115.277344 136.992188 115.273438 C 136.761719 115.269531 136.53125 115.265625 136.296875 115.269531 C 135.835938 115.277344 135.367188 115.28125 134.898438 115.289062 C 134.355469 115.304688 133.804688 115.324219 133.253906 115.351562 L 133.433594 116.671875 C 133.9375 116.648438 134.433594 116.632812 134.929688 116.617188 Z M 153.222656 118.707031 C 153.40625 118.757812 153.59375 118.808594 153.78125 118.855469 C 154.148438 118.957031 154.519531 119.054688 154.882812 119.15625 C 155.605469 119.375 156.324219 119.578125 157.019531 119.8125 C 158.417969 120.253906 159.75 120.75 161.027344 121.246094 C 161.34375 121.375 161.660156 121.503906 161.96875 121.628906 C 162.125 121.691406 162.28125 121.757812 162.4375 121.820312 C 162.589844 121.882812 162.742188 121.953125 162.890625 122.019531 C 163.195312 122.148438 163.492188 122.28125 163.789062 122.410156 C 163.9375 122.476562 164.085938 122.542969 164.230469 122.613281 C 164.375 122.679688 164.519531 122.746094 164.664062 122.8125 C 165.796875 123.339844 166.867188 123.878906 167.878906 124.417969 L 167.664062 122.804688 C 166.882812 122.402344 166.070312 122.003906 165.226562 121.609375 C 165.078125 121.539062 164.929688 121.472656 164.78125 121.402344 C 164.636719 121.332031 164.488281 121.261719 164.335938 121.199219 C 164.03125 121.066406 163.726562 120.933594 163.417969 120.796875 C 163.261719 120.730469 163.109375 120.660156 162.953125 120.59375 C 162.796875 120.53125 162.636719 120.464844 162.480469 120.402344 C 162.160156 120.269531 161.839844 120.140625 161.515625 120.007812 C 160.210938 119.503906 158.855469 118.996094 157.429688 118.546875 C 156.71875 118.308594 155.988281 118.101562 155.246094 117.878906 C 154.878906 117.773438 154.5 117.675781 154.121094 117.574219 C 153.933594 117.519531 153.742188 117.46875 153.554688 117.417969 C 153.359375 117.371094 153.171875 117.324219 152.976562 117.277344 C 152.9375 117.265625 152.898438 117.257812 152.859375 117.25 L 153.085938 118.671875 C 153.128906 118.683594 153.175781 118.695312 153.222656 118.707031 Z M 175.472656 131.703125 C 175.453125 131.6875 175.433594 131.675781 175.417969 131.660156 L 175.542969 132.601562 C 175.582031 132.894531 175.601562 133.191406 175.609375 133.492188 C 177.339844 134.855469 178.882812 136.203125 180.238281 137.5 C 181.832031 139.027344 183.179688 140.46875 184.304688 141.765625 C 184.859375 142.414062 185.375 143.019531 185.828125 143.589844 C 185.941406 143.730469 186.050781 143.867188 186.160156 144.003906 C 186.214844 144.070312 186.269531 144.136719 186.320312 144.203125 C 186.375 144.269531 186.425781 144.339844 186.476562 144.402344 C 186.675781 144.664062 186.867188 144.914062 187.046875 145.148438 C 187.226562 145.378906 187.390625 145.605469 187.542969 145.816406 C 187.695312 146.027344 187.839844 146.226562 187.972656 146.40625 C 188.039062 146.5 188.105469 146.585938 188.164062 146.671875 C 188.222656 146.757812 188.28125 146.839844 188.332031 146.917969 C 188.441406 147.070312 188.539062 147.210938 188.625 147.335938 C 188.800781 147.589844 188.933594 147.777344 189.019531 147.90625 C 189.105469 148.035156 189.148438 148.101562 189.148438 148.101562 L 190.253906 147.363281 C 190.253906 147.363281 190.210938 147.296875 190.121094 147.164062 C 190.03125 147.035156 189.898438 146.839844 189.71875 146.582031 C 189.628906 146.453125 189.53125 146.308594 189.421875 146.152344 C 189.367188 146.070312 189.308594 145.988281 189.25 145.902344 C 189.1875 145.816406 189.121094 145.726562 189.054688 145.632812 C 188.917969 145.445312 188.773438 145.246094 188.613281 145.03125 C 188.457031 144.816406 188.292969 144.585938 188.105469 144.347656 C 187.921875 144.105469 187.726562 143.851562 187.523438 143.585938 C 187.472656 143.519531 187.421875 143.449219 187.367188 143.382812 C 187.3125 143.316406 187.257812 143.246094 187.203125 143.179688 C 187.09375 143.039062 186.980469 142.898438 186.863281 142.753906 C 186.402344 142.171875 185.875 141.554688 185.304688 140.890625 C 184.160156 139.570312 182.78125 138.097656 181.15625 136.539062 C 179.527344 134.980469 177.636719 133.347656 175.472656 131.703125 Z M 156.6875 129.023438 C 155.925781 128.742188 155.152344 128.472656 154.359375 128.21875 C 154.320312 128.664062 154.242188 129.105469 154.125 129.539062 C 154.839844 129.773438 155.539062 130.015625 156.222656 130.269531 C 157.039062 130.566406 157.828125 130.886719 158.597656 131.21875 C 158.835938 130.832031 159.097656 130.464844 159.386719 130.109375 C 158.511719 129.730469 157.613281 129.363281 156.6875 129.023438 Z M 137.457031 128.804688 C 137.273438 128.804688 137.085938 128.800781 136.902344 128.800781 C 136.71875 128.796875 136.53125 128.792969 136.34375 128.796875 C 135.972656 128.800781 135.597656 128.804688 135.21875 128.8125 C 135.175781 128.8125 135.132812 128.8125 135.09375 128.816406 C 135.121094 129.164062 135.113281 129.523438 135.078125 129.878906 C 135.070312 129.96875 135.054688 130.058594 135.042969 130.148438 C 135.113281 130.144531 135.183594 130.140625 135.25 130.140625 C 135.617188 130.136719 135.984375 130.128906 136.347656 130.125 C 136.53125 130.121094 136.710938 130.125 136.894531 130.128906 C 137.074219 130.128906 137.253906 130.132812 137.4375 130.136719 C 137.53125 130.136719 137.621094 130.140625 137.714844 130.140625 C 137.683594 129.703125 137.6875 129.261719 137.734375 128.8125 C 137.644531 128.8125 137.550781 128.808594 137.457031 128.804688 Z M 132.941406 237.585938 C 133.707031 237.640625 134.46875 237.664062 135.21875 237.6875 C 135.597656 237.695312 135.972656 237.699219 136.34375 237.703125 C 136.53125 237.707031 136.71875 237.703125 136.902344 237.699219 C 137.085938 237.699219 137.273438 237.695312 137.457031 237.691406 C 139.03125 237.667969 140.5625 237.574219 142.054688 237.421875 C 142.019531 237.183594 141.992188 236.941406 141.976562 236.699219 C 141.964844 236.5 141.964844 236.296875 141.972656 236.097656 C 140.5 236.246094 138.988281 236.339844 137.4375 236.363281 C 137.253906 236.367188 137.074219 236.367188 136.894531 236.371094 C 136.710938 236.375 136.53125 236.378906 136.347656 236.375 C 135.984375 236.367188 135.617188 236.367188 135.25 236.359375 C 134.515625 236.335938 133.773438 236.3125 133.027344 236.257812 C 131.851562 236.179688 130.660156 236.066406 129.457031 235.90625 C 129.613281 236.355469 129.71875 236.816406 129.777344 237.289062 C 130.84375 237.417969 131.898438 237.515625 132.941406 237.585938 Z M 156.054688 133.824219 C 156.308594 133.925781 156.558594 134.03125 156.804688 134.128906 C 156.929688 134.183594 157.050781 134.230469 157.175781 134.28125 C 157.238281 134.308594 157.300781 134.335938 157.363281 134.363281 C 157.425781 134.035156 157.503906 133.707031 157.605469 133.378906 C 157.640625 133.273438 157.675781 133.167969 157.710938 133.066406 C 157.707031 133.0625 157.699219 133.058594 157.691406 133.058594 C 157.566406 133.003906 157.441406 132.953125 157.3125 132.902344 C 157.058594 132.796875 156.800781 132.691406 156.542969 132.585938 C 155.527344 132.195312 154.46875 131.800781 153.359375 131.449219 C 153.144531 131.847656 152.894531 132.234375 152.617188 132.601562 C 152.699219 132.628906 152.78125 132.65625 152.867188 132.683594 C 153.980469 133.035156 155.035156 133.433594 156.054688 133.824219 Z M 95.019531 148.015625 C 94.292969 148.867188 93.585938 149.746094 92.910156 150.648438 C 92.140625 151.675781 91.40625 152.738281 90.703125 153.828125 C 91.019531 154.175781 91.308594 154.550781 91.570312 154.945312 C 92.328125 153.742188 93.128906 152.574219 93.972656 151.445312 C 94.5625 150.660156 95.171875 149.894531 95.800781 149.148438 C 95.507812 148.800781 95.246094 148.421875 95.019531 148.015625 Z M 109.976562 137.226562 C 110.402344 136.980469 110.828125 136.746094 111.253906 136.511719 C 110.933594 136.214844 110.648438 135.882812 110.402344 135.507812 C 110.398438 135.496094 110.390625 135.484375 110.382812 135.472656 C 110.023438 135.671875 109.667969 135.871094 109.3125 136.074219 C 108.273438 136.675781 107.246094 137.320312 106.234375 138 C 106.511719 138.34375 106.757812 138.714844 106.96875 139.109375 C 107.957031 138.445312 108.960938 137.816406 109.976562 137.226562 Z M 175.503906 129.179688 C 175.835938 129.417969 176.15625 129.648438 176.457031 129.875 C 176.757812 130.105469 177.046875 130.324219 177.320312 130.535156 C 177.457031 130.640625 177.59375 130.742188 177.722656 130.84375 C 177.851562 130.949219 177.976562 131.050781 178.101562 131.148438 C 178.34375 131.347656 178.578125 131.53125 178.796875 131.710938 C 178.90625 131.796875 179.011719 131.886719 179.113281 131.972656 C 179.214844 132.054688 179.3125 132.140625 179.40625 132.21875 C 179.59375 132.378906 179.773438 132.53125 179.9375 132.667969 C 180.019531 132.738281 180.097656 132.804688 180.171875 132.871094 C 180.246094 132.933594 180.316406 132.996094 180.386719 133.058594 C 180.519531 133.175781 180.640625 133.285156 180.75 133.382812 C 180.96875 133.574219 181.136719 133.722656 181.246094 133.820312 C 181.355469 133.917969 181.410156 133.96875 181.410156 133.96875 L 182.304688 132.988281 C 182.304688 132.988281 182.25 132.933594 182.136719 132.832031 C 182.023438 132.734375 181.855469 132.585938 181.632812 132.386719 C 181.523438 132.289062 181.398438 132.179688 181.261719 132.054688 C 181.191406 131.996094 181.117188 131.933594 181.042969 131.867188 C 180.964844 131.800781 180.886719 131.730469 180.804688 131.660156 C 180.636719 131.519531 180.457031 131.367188 180.261719 131.203125 C 180.164062 131.121094 180.066406 131.035156 179.960938 130.949219 C 179.859375 130.863281 179.75 130.769531 179.640625 130.683594 C 179.414062 130.5 179.179688 130.3125 178.929688 130.109375 C 178.804688 130.007812 178.675781 129.90625 178.546875 129.800781 C 178.414062 129.695312 178.273438 129.59375 178.136719 129.484375 C 177.855469 129.269531 177.5625 129.042969 177.253906 128.8125 C 176.945312 128.582031 176.621094 128.347656 176.285156 128.101562 C 175.820312 127.765625 175.320312 127.417969 174.800781 127.058594 L 175.039062 128.84375 C 175.199219 128.957031 175.351562 129.066406 175.503906 129.179688 Z M 176.484375 225.070312 C 177.941406 223.675781 179.175781 222.355469 180.203125 221.171875 C 180.710938 220.574219 181.183594 220.023438 181.59375 219.503906 C 181.699219 219.375 181.800781 219.246094 181.902344 219.125 C 181.949219 219.0625 182 219 182.046875 218.941406 C 182.097656 218.878906 182.140625 218.816406 182.1875 218.757812 C 182.371094 218.519531 182.546875 218.292969 182.710938 218.078125 C 182.875 217.863281 183.023438 217.65625 183.164062 217.464844 C 183.304688 217.269531 183.4375 217.089844 183.558594 216.925781 C 183.621094 216.839844 183.679688 216.761719 183.734375 216.683594 C 183.785156 216.605469 183.839844 216.53125 183.886719 216.460938 C 183.984375 216.316406 184.074219 216.1875 184.15625 216.074219 C 184.3125 215.84375 184.433594 215.671875 184.515625 215.554688 C 184.59375 215.433594 184.632812 215.375 184.632812 215.375 L 183.527344 214.636719 C 183.527344 214.636719 183.488281 214.695312 183.414062 214.8125 C 183.335938 214.925781 183.21875 215.09375 183.0625 215.320312 C 182.984375 215.429688 182.894531 215.554688 182.800781 215.695312 C 182.75 215.765625 182.703125 215.839844 182.648438 215.914062 C 182.59375 215.992188 182.535156 216.066406 182.476562 216.148438 C 182.359375 216.3125 182.230469 216.488281 182.09375 216.675781 C 181.957031 216.863281 181.8125 217.066406 181.648438 217.277344 C 181.488281 217.484375 181.320312 217.707031 181.136719 217.941406 C 181.09375 218 181.046875 218.058594 181.003906 218.117188 C 180.957031 218.179688 180.910156 218.238281 180.859375 218.296875 C 180.761719 218.417969 180.660156 218.542969 180.5625 218.667969 C 180.15625 219.179688 179.695312 219.71875 179.199219 220.300781 C 178.195312 221.457031 176.988281 222.746094 175.5625 224.109375 C 174.78125 224.859375 173.929688 225.625 173.011719 226.402344 C 173.210938 226.828125 173.367188 227.28125 173.476562 227.746094 C 174.570312 226.839844 175.574219 225.941406 176.484375 225.070312 Z M 180.460938 140.617188 C 179.03125 139.144531 177.488281 137.703125 175.835938 136.316406 C 175.660156 136.167969 175.480469 136.023438 175.304688 135.875 C 175.179688 136.328125 175.019531 136.773438 174.824219 137.207031 C 174.878906 137.25 174.929688 137.292969 174.980469 137.335938 C 176.597656 138.691406 178.105469 140.101562 179.507812 141.542969 C 182.308594 144.425781 184.671875 147.441406 186.636719 150.4375 C 187.617188 151.933594 188.503906 153.429688 189.300781 154.902344 C 189.492188 155.273438 189.6875 155.636719 189.878906 156 C 190.0625 156.371094 190.242188 156.734375 190.421875 157.097656 C 190.515625 157.273438 190.597656 157.457031 190.683594 157.640625 C 190.765625 157.820312 190.851562 158 190.933594 158.179688 C 190.976562 158.269531 191.015625 158.359375 191.058594 158.445312 C 191.101562 158.535156 191.144531 158.625 191.179688 158.714844 C 191.257812 158.894531 191.335938 159.074219 191.414062 159.25 C 191.570312 159.605469 191.726562 159.957031 191.867188 160.308594 C 192.011719 160.660156 192.15625 161.007812 192.292969 161.351562 C 192.425781 161.699219 192.554688 162.042969 192.683594 162.382812 C 192.714844 162.46875 192.75 162.554688 192.78125 162.636719 C 192.808594 162.722656 192.839844 162.808594 192.871094 162.890625 C 192.929688 163.0625 192.988281 163.230469 193.050781 163.398438 C 193.207031 163.832031 193.347656 164.261719 193.484375 164.6875 L 194.882812 164.6875 C 194.699219 164.121094 194.515625 163.539062 194.304688 162.957031 C 194.242188 162.785156 194.183594 162.613281 194.121094 162.441406 C 194.089844 162.351562 194.058594 162.265625 194.027344 162.179688 C 193.996094 162.09375 193.964844 162.007812 193.929688 161.917969 C 193.796875 161.570312 193.664062 161.222656 193.53125 160.867188 C 193.390625 160.511719 193.242188 160.160156 193.09375 159.796875 C 192.953125 159.4375 192.789062 159.082031 192.632812 158.71875 C 192.554688 158.535156 192.472656 158.351562 192.394531 158.167969 C 192.351562 158.078125 192.3125 157.988281 192.269531 157.894531 C 192.226562 157.804688 192.183594 157.714844 192.140625 157.621094 C 192.054688 157.4375 191.96875 157.253906 191.882812 157.070312 C 191.796875 156.886719 191.710938 156.695312 191.617188 156.515625 C 191.433594 156.144531 191.25 155.773438 191.0625 155.394531 C 190.867188 155.023438 190.667969 154.648438 190.46875 154.273438 C 189.65625 152.765625 188.753906 151.238281 187.746094 149.707031 C 185.738281 146.644531 183.324219 143.5625 180.460938 140.617188 Z M 99.441406 230.265625 C 99.328125 230.265625 99.21875 230.261719 99.105469 230.261719 C 98.371094 230.230469 97.640625 230.113281 96.921875 229.917969 C 97.019531 230 97.113281 230.085938 97.210938 230.164062 C 101.652344 233.894531 106.570312 236.941406 111.71875 239.226562 C 111.882812 239.300781 112.046875 239.371094 112.207031 239.441406 C 112.238281 239.058594 112.292969 238.675781 112.382812 238.296875 C 112.398438 238.226562 112.417969 238.160156 112.4375 238.089844 C 112.378906 238.066406 112.320312 238.039062 112.257812 238.011719 C 107.746094 236.007812 103.417969 233.410156 99.441406 230.265625 Z M 79.664062 189.433594 C 79.898438 189.441406 80.136719 189.460938 80.371094 189.488281 C 80.144531 187.421875 80.027344 185.335938 80.023438 183.25 C 80.023438 183.21875 80.023438 183.1875 80.027344 183.15625 C 79.558594 182.882812 79.117188 182.558594 78.707031 182.191406 C 78.699219 182.542969 78.695312 182.894531 78.695312 183.25 C 78.699219 185.316406 78.808594 187.378906 79.027344 189.429688 C 79.238281 189.421875 79.449219 189.421875 79.664062 189.433594 Z M 108.34375 232.234375 C 106.753906 231.316406 105.199219 230.3125 103.683594 229.230469 C 103.234375 229.472656 102.757812 229.675781 102.257812 229.839844 L 102.296875 229.867188 C 104.042969 231.148438 105.839844 232.324219 107.679688 233.386719 C 109.484375 234.429688 111.332031 235.359375 113.199219 236.183594 C 113.410156 235.792969 113.652344 235.414062 113.925781 235.050781 C 113.898438 235.039062 113.871094 235.027344 113.84375 235.015625 C 111.980469 234.195312 110.140625 233.273438 108.34375 232.234375 Z M 91.902344 217.90625 C 91.128906 216.914062 90.386719 215.894531 89.679688 214.847656 C 88.449219 213.023438 87.320312 211.121094 86.296875 209.152344 L 86.203125 208.96875 L 86.109375 208.78125 L 85.925781 208.40625 C 85.800781 208.160156 85.675781 207.914062 85.554688 207.660156 C 85.4375 207.410156 85.320312 207.15625 85.203125 206.90625 L 85.027344 206.527344 L 84.859375 206.144531 C 84.824219 206.066406 84.789062 205.988281 84.757812 205.914062 C 84.34375 206.070312 83.917969 206.199219 83.472656 206.292969 C 83.527344 206.425781 83.585938 206.554688 83.644531 206.683594 L 83.816406 207.078125 L 83.996094 207.460938 C 84.117188 207.722656 84.238281 207.980469 84.355469 208.234375 C 84.480469 208.492188 84.609375 208.746094 84.734375 209 L 84.921875 209.382812 L 85.019531 209.574219 L 85.117188 209.761719 C 86.164062 211.777344 87.320312 213.726562 88.578125 215.59375 C 89.351562 216.734375 90.164062 217.84375 91.007812 218.921875 Z M 136.390625 241.085938 C 138.636719 241.089844 140.835938 240.964844 142.972656 240.726562 L 142.585938 239.429688 C 140.570312 239.644531 138.503906 239.757812 136.394531 239.753906 C 134.566406 239.753906 132.710938 239.660156 130.839844 239.472656 C 130.476562 239.4375 130.113281 239.398438 129.75 239.351562 C 129.683594 239.789062 129.582031 240.226562 129.4375 240.65625 C 129.863281 240.707031 130.285156 240.753906 130.707031 240.796875 C 132.625 240.988281 134.523438 241.082031 136.390625 241.085938 Z M 140.390625 123.488281 C 140.808594 123.074219 141.265625 122.695312 141.761719 122.355469 C 141.804688 122.324219 141.851562 122.296875 141.894531 122.265625 C 141.773438 122.257812 141.652344 122.246094 141.535156 122.234375 C 141.210938 122.203125 140.882812 122.1875 140.558594 122.164062 C 140.234375 122.144531 139.90625 122.121094 139.582031 122.105469 C 139.253906 122.09375 138.925781 122.082031 138.597656 122.070312 C 138.433594 122.0625 138.269531 122.058594 138.105469 122.050781 C 137.941406 122.046875 137.777344 122.046875 137.613281 122.046875 C 137.285156 122.039062 136.953125 122.035156 136.625 122.03125 C 136.292969 122.03125 135.964844 122.039062 135.632812 122.042969 C 135.148438 122.042969 134.664062 122.0625 134.175781 122.082031 L 134.359375 123.402344 C 134.789062 123.386719 135.222656 123.371094 135.652344 123.371094 C 135.976562 123.367188 136.300781 123.359375 136.621094 123.359375 C 136.945312 123.367188 137.269531 123.371094 137.589844 123.375 C 137.75 123.375 137.914062 123.378906 138.074219 123.378906 C 138.234375 123.386719 138.394531 123.390625 138.554688 123.398438 C 138.875 123.410156 139.195312 123.421875 139.515625 123.433594 C 139.808594 123.449219 140.101562 123.46875 140.390625 123.488281 Z M 161.410156 127.300781 C 161.132812 127.179688 160.859375 127.058594 160.585938 126.9375 L 160.171875 126.765625 C 160.03125 126.707031 159.894531 126.652344 159.753906 126.59375 C 159.472656 126.480469 159.195312 126.363281 158.914062 126.253906 C 158.632812 126.144531 158.347656 126.039062 158.066406 125.929688 C 157.921875 125.875 157.78125 125.820312 157.636719 125.765625 C 157.496094 125.714844 157.351562 125.664062 157.207031 125.613281 C 156.921875 125.511719 156.632812 125.410156 156.34375 125.308594 C 156.199219 125.257812 156.054688 125.210938 155.90625 125.164062 C 155.761719 125.117188 155.613281 125.066406 155.46875 125.019531 C 155.320312 124.972656 155.175781 124.925781 155.027344 124.878906 C 154.882812 124.832031 154.734375 124.78125 154.585938 124.738281 C 154.394531 124.679688 154.203125 124.625 154.011719 124.566406 L 154.242188 126.023438 C 154.371094 126.0625 154.5 126.105469 154.628906 126.144531 C 154.769531 126.191406 154.914062 126.238281 155.058594 126.285156 C 155.199219 126.332031 155.34375 126.378906 155.488281 126.425781 C 155.628906 126.46875 155.769531 126.515625 155.914062 126.566406 C 156.195312 126.667969 156.476562 126.765625 156.757812 126.863281 C 156.898438 126.914062 157.042969 126.960938 157.179688 127.015625 C 157.320312 127.070312 157.457031 127.121094 157.597656 127.171875 C 157.875 127.277344 158.152344 127.386719 158.429688 127.488281 C 158.703125 127.597656 158.976562 127.714844 159.25 127.824219 C 159.386719 127.878906 159.523438 127.933594 159.660156 127.992188 L 159.863281 128.074219 L 160.0625 128.164062 C 160.332031 128.28125 160.601562 128.398438 160.867188 128.515625 C 160.894531 128.527344 160.925781 128.539062 160.953125 128.550781 C 161.246094 128.308594 161.558594 128.082031 161.882812 127.867188 C 161.988281 127.800781 162.101562 127.730469 162.210938 127.664062 C 162.078125 127.601562 161.949219 127.542969 161.816406 127.480469 C 161.683594 127.417969 161.542969 127.359375 161.410156 127.300781 Z M 107.679688 133.113281 C 106.269531 133.929688 104.882812 134.8125 103.523438 135.757812 L 104.679688 136.574219 C 105.878906 135.753906 107.101562 134.984375 108.34375 134.265625 C 108.761719 134.023438 109.183594 133.789062 109.609375 133.558594 C 109.511719 133.085938 109.476562 132.601562 109.5 132.109375 C 108.890625 132.433594 108.28125 132.765625 107.679688 133.113281 Z M 106.257812 226.90625 C 106.011719 227.273438 105.730469 227.621094 105.414062 227.9375 C 106.691406 228.828125 107.988281 229.660156 109.3125 230.425781 C 111.316406 231.585938 113.367188 232.59375 115.433594 233.464844 C 115.828125 233.128906 116.25 232.824219 116.699219 232.546875 C 114.425781 231.632812 112.175781 230.546875 109.976562 229.273438 C 108.71875 228.542969 107.476562 227.753906 106.257812 226.90625 Z M 86.570312 204.941406 C 86.722656 205.292969 86.878906 205.640625 87.039062 205.988281 C 88.660156 209.5 90.636719 212.8125 92.910156 215.851562 C 93.085938 216.082031 93.261719 216.308594 93.441406 216.539062 C 93.8125 216.292969 94.207031 216.078125 94.621094 215.894531 C 94.402344 215.617188 94.1875 215.339844 93.972656 215.054688 C 91.757812 212.089844 89.828125 208.859375 88.246094 205.433594 C 88.035156 204.96875 87.828125 204.503906 87.625 204.03125 C 87.304688 204.367188 86.953125 204.671875 86.570312 204.941406 Z M 138.855469 125.460938 C 138.039062 125.429688 137.21875 125.414062 136.390625 125.414062 C 135.808594 125.414062 135.226562 125.425781 134.640625 125.445312 L 134.824219 126.769531 C 135.347656 126.753906 135.871094 126.746094 136.394531 126.742188 C 137.007812 126.742188 137.617188 126.753906 138.226562 126.773438 C 138.398438 126.320312 138.609375 125.882812 138.855469 125.460938 Z M 82.488281 189.945312 C 82.96875 190.097656 83.441406 190.289062 83.902344 190.511719 C 83.617188 188.410156 83.453125 186.292969 83.414062 184.164062 C 83.40625 184.164062 83.394531 184.164062 83.386719 184.164062 C 82.941406 184.148438 82.507812 184.085938 82.082031 183.988281 C 82.109375 185.980469 82.246094 187.972656 82.488281 189.945312 Z M 89.679688 151.652344 C 90.914062 149.832031 92.246094 148.089844 93.660156 146.4375 L 93.792969 146.285156 L 93.929688 146.128906 L 94.183594 145.84375 C 94.054688 145.28125 93.980469 144.699219 93.964844 144.097656 C 93.894531 144.171875 93.828125 144.246094 93.757812 144.324219 C 93.570312 144.527344 93.386719 144.738281 93.203125 144.945312 L 92.925781 145.257812 L 92.652344 145.570312 C 91.203125 147.261719 89.839844 149.042969 88.578125 150.90625 C 88.375 151.207031 88.171875 151.511719 87.976562 151.820312 C 88.378906 152 88.769531 152.214844 89.140625 152.464844 C 89.316406 152.191406 89.496094 151.921875 89.679688 151.652344 " fill-opacity="1" fill-rule="nonzero"/><path fill="#ffffff" d="M 85.8125 153.574219 C 86.183594 153.632812 86.554688 153.738281 86.910156 153.890625 C 88.527344 154.5625 89.921875 156.117188 90.53125 158.171875 C 91.5 161.441406 90.113281 164.738281 87.429688 165.535156 C 84.746094 166.328125 81.785156 164.324219 80.8125 161.054688 C 80.066406 158.539062 80.714844 156.011719 82.277344 154.613281 L 67.976562 152.339844 L 71.871094 167.902344 L 83.242188 169.710938 C 83.617188 169.769531 83.984375 169.875 84.34375 170.023438 C 85.960938 170.703125 87.355469 172.257812 87.960938 174.308594 C 88.933594 177.578125 87.542969 180.875 84.859375 181.671875 C 82.175781 182.46875 79.214844 180.460938 78.246094 177.191406 C 77.5 174.675781 78.148438 172.148438 79.707031 170.75 L 66.28125 168.613281 L 62.203125 152.886719 C 61.941406 151.878906 61.890625 150.824219 62.054688 149.792969 L 85.8125 153.574219 " fill-opacity="1" fill-rule="nonzero"/><g fill="#ffffff" fill-opacity="1"><g transform="translate(102.086307, 199.546408)"><g><path d="M 2.0625 -28.4375 L 12.234375 -28.4375 C 14.972656 -28.4375 17.203125 -27.707031 18.921875 -26.25 C 20.648438 -24.789062 21.515625 -22.703125 21.515625 -19.984375 C 21.515625 -17.898438 20.988281 -16.148438 19.9375 -14.734375 C 18.894531 -13.316406 17.476562 -12.320312 15.6875 -11.75 L 25.46875 0 L 17.234375 0 L 8.546875 -11.234375 L 8.546875 0 L 2.0625 0 Z M 8.546875 -15.828125 L 9.3125 -15.828125 C 9.90625 -15.828125 10.40625 -15.835938 10.8125 -15.859375 C 11.226562 -15.878906 11.703125 -15.957031 12.234375 -16.09375 C 12.765625 -16.226562 13.191406 -16.421875 13.515625 -16.671875 C 13.835938 -16.929688 14.113281 -17.300781 14.34375 -17.78125 C 14.570312 -18.269531 14.6875 -18.859375 14.6875 -19.546875 C 14.6875 -20.234375 14.570312 -20.816406 14.34375 -21.296875 C 14.113281 -21.785156 13.835938 -22.15625 13.515625 -22.40625 C 13.191406 -22.65625 12.765625 -22.847656 12.234375 -22.984375 C 11.703125 -23.128906 11.226562 -23.210938 10.8125 -23.234375 C 10.40625 -23.253906 9.90625 -23.265625 9.3125 -23.265625 L 8.546875 -23.265625 Z M 8.546875 -15.828125 "/></g></g></g><g fill="#ffffff" fill-opacity="1"><g transform="translate(126.763085, 199.546408)"><g><path d="M 18.34375 -28.4375 L 18.34375 -22.75 L 8.546875 -22.75 L 8.546875 -17.09375 L 17.921875 -17.09375 L 17.921875 -11.40625 L 8.546875 -11.40625 L 8.546875 -5.6875 L 18.34375 -5.6875 L 18.34375 0 L 2.0625 0 L 2.0625 -28.4375 Z M 18.34375 -28.4375 "/></g></g></g><g fill="#ffffff" fill-opacity="1"><g transform="translate(146.752651, 199.546408)"><g><path d="M 17.203125 -5.859375 C 18.191406 -5.859375 19.148438 -6.003906 20.078125 -6.296875 C 21.003906 -6.597656 21.6875 -6.890625 22.125 -7.171875 L 22.78125 -7.625 L 25.546875 -2.109375 C 25.453125 -2.035156 25.320312 -1.941406 25.15625 -1.828125 C 25 -1.710938 24.625 -1.5 24.03125 -1.1875 C 23.445312 -0.875 22.820312 -0.601562 22.15625 -0.375 C 21.488281 -0.144531 20.613281 0.0546875 19.53125 0.234375 C 18.457031 0.421875 17.347656 0.515625 16.203125 0.515625 C 13.554688 0.515625 11.050781 -0.128906 8.6875 -1.421875 C 6.320312 -2.722656 4.414062 -4.507812 2.96875 -6.78125 C 1.519531 -9.0625 0.796875 -11.523438 0.796875 -14.171875 C 0.796875 -16.171875 1.21875 -18.085938 2.0625 -19.921875 C 2.914062 -21.765625 4.046875 -23.335938 5.453125 -24.640625 C 6.867188 -25.953125 8.519531 -27 10.40625 -27.78125 C 12.289062 -28.5625 14.222656 -28.953125 16.203125 -28.953125 C 18.035156 -28.953125 19.726562 -28.734375 21.28125 -28.296875 C 22.832031 -27.859375 23.929688 -27.421875 24.578125 -26.984375 L 25.546875 -26.328125 L 22.78125 -20.8125 C 22.625 -20.957031 22.382812 -21.125 22.0625 -21.3125 C 21.738281 -21.507812 21.09375 -21.769531 20.125 -22.09375 C 19.164062 -22.414062 18.191406 -22.578125 17.203125 -22.578125 C 15.640625 -22.578125 14.238281 -22.320312 13 -21.8125 C 11.757812 -21.3125 10.773438 -20.644531 10.046875 -19.8125 C 9.328125 -18.988281 8.773438 -18.097656 8.390625 -17.140625 C 8.015625 -16.191406 7.828125 -15.222656 7.828125 -14.234375 C 7.828125 -12.078125 8.632812 -10.140625 10.25 -8.421875 C 11.875 -6.710938 14.191406 -5.859375 17.203125 -5.859375 Z M 17.203125 -5.859375 "/></g></g></g><g fill="#ffffff" fill-opacity="1"><g transform="translate(172.704623, 199.546408)"><g><path d="M 0.796875 -14.234375 C 0.796875 -18.347656 2.195312 -21.828125 5 -24.671875 C 7.800781 -27.523438 11.175781 -28.953125 15.125 -28.953125 C 19.101562 -28.953125 22.484375 -27.53125 25.265625 -24.6875 C 28.046875 -21.851562 29.4375 -18.367188 29.4375 -14.234375 C 29.4375 -10.078125 28.066406 -6.578125 25.328125 -3.734375 C 22.597656 -0.898438 19.195312 0.515625 15.125 0.515625 C 10.96875 0.515625 7.539062 -0.890625 4.84375 -3.703125 C 2.144531 -6.515625 0.796875 -10.023438 0.796875 -14.234375 Z M 7.796875 -14.234375 C 7.796875 -12.742188 8.023438 -11.382812 8.484375 -10.15625 C 8.941406 -8.925781 9.742188 -7.882812 10.890625 -7.03125 C 12.035156 -6.175781 13.445312 -5.75 15.125 -5.75 C 17.539062 -5.75 19.363281 -6.578125 20.59375 -8.234375 C 21.820312 -9.890625 22.4375 -11.890625 22.4375 -14.234375 C 22.4375 -16.554688 21.8125 -18.550781 20.5625 -20.21875 C 19.3125 -21.882812 17.5 -22.71875 15.125 -22.71875 C 12.78125 -22.71875 10.972656 -21.882812 9.703125 -20.21875 C 8.429688 -18.550781 7.796875 -16.554688 7.796875 -14.234375 Z M 7.796875 -14.234375 "/></g></g></g><g fill="#ffffff" fill-opacity="1"><g transform="translate(202.93023, 199.546408)"><g><path d="M 2.0625 -12.609375 L 13.171875 -12.609375 L 13.171875 -7.34375 L 2.0625 -7.34375 Z M 2.0625 -12.609375 "/></g></g></g><g fill="#ffffff" fill-opacity="1"><g transform="translate(218.163665, 199.546408)"><g><path d="M 12.546875 -28.953125 C 14.085938 -28.953125 15.59375 -28.726562 17.0625 -28.28125 C 18.53125 -27.832031 19.625 -27.390625 20.34375 -26.953125 L 21.375 -26.265625 L 18.75 -21.09375 C 18.539062 -21.226562 18.253906 -21.40625 17.890625 -21.625 C 17.523438 -21.84375 16.832031 -22.132812 15.8125 -22.5 C 14.800781 -22.875 13.863281 -23.0625 13 -23.0625 C 11.914062 -23.0625 11.078125 -22.832031 10.484375 -22.375 C 9.898438 -21.914062 9.609375 -21.296875 9.609375 -20.515625 C 9.609375 -20.117188 9.742188 -19.753906 10.015625 -19.421875 C 10.296875 -19.085938 10.769531 -18.726562 11.4375 -18.34375 C 12.101562 -17.96875 12.6875 -17.664062 13.1875 -17.4375 C 13.695312 -17.207031 14.484375 -16.863281 15.546875 -16.40625 C 17.378906 -15.625 18.945312 -14.5625 20.25 -13.21875 C 21.550781 -11.875 22.203125 -10.351562 22.203125 -8.65625 C 22.203125 -7.019531 21.90625 -5.59375 21.3125 -4.375 C 20.726562 -3.15625 19.925781 -2.203125 18.90625 -1.515625 C 17.882812 -0.828125 16.753906 -0.316406 15.515625 0.015625 C 14.273438 0.347656 12.929688 0.515625 11.484375 0.515625 C 10.234375 0.515625 9.007812 0.390625 7.8125 0.140625 C 6.625 -0.109375 5.628906 -0.421875 4.828125 -0.796875 C 4.023438 -1.179688 3.300781 -1.554688 2.65625 -1.921875 C 2.007812 -2.296875 1.535156 -2.609375 1.234375 -2.859375 L 0.796875 -3.234375 L 4.03125 -8.6875 C 4.3125 -8.457031 4.691406 -8.160156 5.171875 -7.796875 C 5.648438 -7.441406 6.503906 -6.96875 7.734375 -6.375 C 8.960938 -5.78125 10.050781 -5.484375 11 -5.484375 C 13.726562 -5.484375 15.09375 -6.410156 15.09375 -8.265625 C 15.09375 -8.660156 14.992188 -9.023438 14.796875 -9.359375 C 14.609375 -9.691406 14.265625 -10.023438 13.765625 -10.359375 C 13.273438 -10.691406 12.835938 -10.953125 12.453125 -11.140625 C 12.078125 -11.335938 11.457031 -11.640625 10.59375 -12.046875 C 9.738281 -12.453125 9.101562 -12.753906 8.6875 -12.953125 C 6.957031 -13.804688 5.625 -14.867188 4.6875 -16.140625 C 3.75 -17.421875 3.28125 -18.796875 3.28125 -20.265625 C 3.28125 -22.816406 4.21875 -24.898438 6.09375 -26.515625 C 7.976562 -28.140625 10.128906 -28.953125 12.546875 -28.953125 Z M 12.546875 -28.953125 "/></g></g></g><g fill="#ffffff" fill-opacity="1"><g transform="translate(241.323999, 199.546408)"><g><path d="M 0.796875 -14.234375 C 0.796875 -18.347656 2.195312 -21.828125 5 -24.671875 C 7.800781 -27.523438 11.175781 -28.953125 15.125 -28.953125 C 19.101562 -28.953125 22.484375 -27.53125 25.265625 -24.6875 C 28.046875 -21.851562 29.4375 -18.367188 29.4375 -14.234375 C 29.4375 -10.078125 28.066406 -6.578125 25.328125 -3.734375 C 22.597656 -0.898438 19.195312 0.515625 15.125 0.515625 C 10.96875 0.515625 7.539062 -0.890625 4.84375 -3.703125 C 2.144531 -6.515625 0.796875 -10.023438 0.796875 -14.234375 Z M 7.796875 -14.234375 C 7.796875 -12.742188 8.023438 -11.382812 8.484375 -10.15625 C 8.941406 -8.925781 9.742188 -7.882812 10.890625 -7.03125 C 12.035156 -6.175781 13.445312 -5.75 15.125 -5.75 C 17.539062 -5.75 19.363281 -6.578125 20.59375 -8.234375 C 21.820312 -9.890625 22.4375 -11.890625 22.4375 -14.234375 C 22.4375 -16.554688 21.8125 -18.550781 20.5625 -20.21875 C 19.3125 -21.882812 17.5 -22.71875 15.125 -22.71875 C 12.78125 -22.71875 10.972656 -21.882812 9.703125 -20.21875 C 8.429688 -18.550781 7.796875 -16.554688 7.796875 -14.234375 Z M 7.796875 -14.234375 "/></g></g></g><g fill="#ffffff" fill-opacity="1"><g transform="translate(271.549606, 199.546408)"><g><path d="M 8.546875 -17.640625 L 8.546875 0 L 2.0625 0 L 2.0625 -28.4375 L 8.546875 -28.4375 L 19.859375 -10.78125 L 19.921875 -10.78125 L 19.921875 -28.4375 L 26.40625 -28.4375 L 26.40625 0 L 19.921875 0 L 8.609375 -17.640625 Z M 8.546875 -17.640625 "/></g></g></g><g fill="#ffffff" fill-opacity="1"><g transform="translate(300.017515, 199.546408)"><g><path d="M 27.78125 -15.921875 L 27.78125 -9.75 C 27.039062 -6.375 25.429688 -3.816406 22.953125 -2.078125 C 20.472656 -0.347656 17.707031 0.515625 14.65625 0.515625 C 10.8125 0.515625 7.539062 -0.914062 4.84375 -3.78125 C 2.144531 -6.65625 0.796875 -10.128906 0.796875 -14.203125 C 0.796875 -18.335938 2.113281 -21.828125 4.75 -24.671875 C 7.394531 -27.523438 10.695312 -28.953125 14.65625 -28.953125 C 19.269531 -28.953125 22.921875 -27.332031 25.609375 -24.09375 L 21.375 -19.4375 C 19.851562 -21.875 17.738281 -23.09375 15.03125 -23.09375 C 13.03125 -23.09375 11.320312 -22.222656 9.90625 -20.484375 C 8.5 -18.753906 7.796875 -16.660156 7.796875 -14.203125 C 7.796875 -11.785156 8.5 -9.722656 9.90625 -8.015625 C 11.320312 -6.304688 13.03125 -5.453125 15.03125 -5.453125 C 16.6875 -5.453125 18.128906 -5.945312 19.359375 -6.9375 C 20.585938 -7.9375 21.203125 -9.265625 21.203125 -10.921875 L 14.65625 -10.921875 L 14.65625 -15.921875 Z M 27.78125 -15.921875 "/></g></g></g></svg>